<svg xmlns="http://www.w3.org/2000/svg" version="1.1" xmlns:xlink="http://www.w3.org/1999/xlink" width="512" height="512" x="0" y="0" viewBox="0 0 64 64" style="enable-background:new 0 0 512 512" xml:space="preserve"><g><g data-name="11 Hand pointing"><path d="M52.474 23.851a5.046 5.046 0 0 0-3.491.979 5.127 5.127 0 0 0-4.509-4.979 5.029 5.029 0 0 0-3.837 1.264 4.951 4.951 0 0 0-7.651-2.287v-8.656a5.133 5.133 0 0 0-4.512-5.149A5 5 0 0 0 22.986 10v18a1 1 0 0 0 2 0V10a3.006 3.006 0 0 1 .983-2.221 2.966 2.966 0 0 1 2.315-.764 3.117 3.117 0 0 1 2.7 3.157V35a1 1 0 1 0 2 0V22.828a3.006 3.006 0 0 1 .983-2.221 2.966 2.966 0 0 1 2.315-.765A3.119 3.119 0 0 1 38.986 23v12a1 1 0 0 0 2 0V24.828a3.006 3.006 0 0 1 .983-2.221 2.957 2.957 0 0 1 2.315-.765A3.119 3.119 0 0 1 46.986 25v10a1 1 0 0 0 2 0v-6.172a3.006 3.006 0 0 1 .983-2.221 2.959 2.959 0 0 1 2.315-.765A3.119 3.119 0 0 1 54.986 29v14a19.022 19.022 0 0 1-19 19h-.341a19.036 19.036 0 0 1-16.524-9.621L9.428 35.3a3.224 3.224 0 0 1 5.36-3.554L23.2 42.612A1 1 0 0 0 24.986 42V32a1 1 0 0 0-2 0v7.074l-6.617-8.55a5.224 5.224 0 0 0-8.682 5.762l9.7 17.08A21.038 21.038 0 0 0 35.645 64h.341a21.024 21.024 0 0 0 21-21V29a5.133 5.133 0 0 0-4.512-5.149z" fill="#4eb4fe" opacity="1" data-original="#000000"></path><path d="M19.987 17.963a1 1 0 0 0 .8-1.6A8.914 8.914 0 0 1 19 11a9 9 0 1 1 17.278 3.535 1 1 0 0 0 1.839.785 11 11 0 1 0-18.933 2.241 1 1 0 0 0 .803.402z" fill="#4eb4fe" opacity="1" data-original="#000000"></path></g></g></svg>