<svg xmlns="http://www.w3.org/2000/svg" version="1.1" xmlns:xlink="http://www.w3.org/1999/xlink" width="512" height="512" x="0" y="0" viewBox="0 0 297 297" style="enable-background:new 0 0 512 512" xml:space="preserve"><g><path d="M214.577 140.942c-4.22-1.35-16.475-5.056-16.995-5.214a9.184 9.184 0 0 0-11.287 5.645l-23.111 63.411-5.437-37.649 10.407-18.024a9.182 9.182 0 0 0-7.954-13.776h-23.399a9.185 9.185 0 0 0-7.954 13.776l10.409 18.029-5.348 37.897-23.203-63.664a9.182 9.182 0 0 0-11.287-5.645c-.52.157-12.775 3.864-16.995 5.214-23.111 7.397-38.639 28.895-38.639 53.496v93.377a9.184 9.184 0 0 0 9.184 9.184H244.03a9.184 9.184 0 0 0 9.184-9.184v-93.377c.001-24.601-15.527-46.099-38.637-53.496zM62.153 278.631v-84.193c0-16.582 10.396-31.05 25.869-36.002a816.755 816.755 0 0 1 8.403-2.601L139.87 275.04a9.18 9.18 0 0 0 2.387 3.592H62.153zm172.694-.001h-80.106a9.17 9.17 0 0 0 2.388-3.592l43.446-119.204c3.253.994 6.628 2.032 8.403 2.601 15.473 4.952 25.869 19.419 25.869 36.002v84.193zM148.499 113.899c31.402 0 56.95-25.548 56.95-56.95S179.902 0 148.499 0 91.55 25.547 91.55 56.949s25.547 56.95 56.949 56.95zm0-95.53c21.273 0 38.582 17.307 38.582 38.58s-17.308 38.582-38.582 38.582-38.58-17.308-38.58-38.582 17.307-38.58 38.58-38.58z" fill="#4eb4fe" opacity="1" data-original="#000000"></path></g></svg>