<?xml version="1.0" encoding="utf-8"?>
<!-- Generator: Adobe Illustrator 25.2.1, SVG Export Plug-In . SVG Version: 6.00 Build 0)  -->
<svg version="1.1" id="Layer_1" xmlns="http://www.w3.org/2000/svg" xmlns:xlink="http://www.w3.org/1999/xlink" x="0px" y="0px"
	 viewBox="0 0 170 170" style="enable-background:new 0 0 170 170;" xml:space="preserve">
<style type="text/css">
	.st0{fill:#001E3C;}
	.st1{fill:#FFFFFF;}
</style>
<rect x="-12.38" y="-6.77" class="st0" width="206.3" height="190.47"/>
<path class="st1" d="M70.4,29.74c0-6.48,0-12.88,0-19.4c0.85-0.07,1.47-0.16,2.08-0.16c14.31,0.11,28.62,0.17,42.93,0.38
	c5.56,0.08,11.16,0.42,16.53,1.97c13.15,3.78,22.13,11.93,25.48,25.46c2.01,8.13,1.65,16.31-1.32,24.17
	c-3.86,10.22-11.49,16.53-21.64,20.02c-5.32,1.83-10.85,2.56-16.4,2.75c-10.09,0.36-20.19,0.44-30.28,0.63c-0.94,0.02-1.88,0-2.77,0
	c-0.56,1.92-0.67,59.09-0.14,61.99c7.45-0.51,14.43-2.59,21.03-6.09c6.54-3.47,12.05-8.22,17.06-13.91c3.26,2.48,6.4,4.86,9.78,7.42
	c-0.66,0.83-1.2,1.57-1.8,2.27c-8.49,9.77-19.05,16.32-31.49,19.65c-14.6,3.91-29.36,4-43.77-0.56
	C33.43,149.3,19.5,133.9,13.7,111.47c-3.77-14.6-3.32-29.32,2.96-43.22c8.99-19.91,24.46-32.27,45.81-37.12
	C65.02,30.55,67.61,30.23,70.4,29.74z M70.24,42.25c-26.45,2.47-46.83,27.5-45.58,55.05c1.45,31.84,27.54,48.44,45.58,49.7
	C70.24,112.13,70.24,77.27,70.24,42.25z M84.68,71.85c3.46,0,6.63,0.02,9.8,0c7.86-0.05,15.73,0.04,23.59-0.26
	c3.37-0.13,6.8-0.81,10.05-1.76c10.57-3.08,17.19-13.66,15.54-25.34c-1.37-9.69-7.92-16.85-17.09-18.93
	c-2.62-0.59-5.33-1.05-8.01-1.11c-10.88-0.24-21.77-0.31-32.66-0.42c-0.38,0-0.75,0.12-1.23,0.21c0,1.8,0,3.52,0,5.46
	c9.5,0.81,18.52,3.09,26.93,7.52c8.41,4.43,15.47,10.4,21.17,18.25c-3.35,2.57-6.49,4.98-9.78,7.5c-4.77-6-10.22-11.05-16.88-14.67
	c-6.68-3.63-13.75-5.87-21.45-6.42C84.68,51.94,84.68,61.69,84.68,71.85z"/>
</svg>
