<svg xmlns="http://www.w3.org/2000/svg" version="1.1" xmlns:xlink="http://www.w3.org/1999/xlink" width="512" height="512" x="0" y="0" viewBox="0 0 512 512" style="enable-background:new 0 0 512 512" xml:space="preserve" class=""><g><path d="M296.322 255.249h134.445c16.951 0 30.84 13.889 30.84 30.84 0 16.979-13.889 30.84-30.84 30.84 16.951 0 30.84 13.889 30.84 30.84 0 16.979-13.889 30.84-30.84 30.84 16.951 0 30.84 13.889 30.84 30.84 0 16.979-13.889 30.869-30.84 30.869h-23.47c16.951 0 30.84 13.861 30.84 30.84 0 16.951-13.889 30.84-30.84 30.84h-139.49c-32.314 0-89.431-16.1-114.319-37.133" style="stroke-width:20;stroke-linecap:round;stroke-linejoin:round;stroke-miterlimit:10;" fill="none" stroke="#4eb4fe" stroke-width="20" stroke-linecap="round" stroke-linejoin="round" stroke-miterlimit="10" data-original="#000000" opacity="1"></path><path d="M153.487 286.288c59.016-37.643 77.073-82.515 88.411-154.117 3.572-22.677 10.233-44.276 42.576-28.119 21.231 10.601 39.628 46.374 29.196 85.718l-17.348 65.479M430.767 316.93H388.73M430.767 378.61H388.73M407.296 440.319H388.73" style="stroke-width:20;stroke-linecap:round;stroke-linejoin:round;stroke-miterlimit:10;" fill="none" stroke="#4eb4fe" stroke-width="20" stroke-linecap="round" stroke-linejoin="round" stroke-miterlimit="10" data-original="#000000" opacity="1"></path><path d="M135.742 493.921H68.137c-9.751 0-17.745-7.994-17.745-17.745V274.978c0-9.751 7.994-17.745 17.745-17.745h67.605c9.751 0 17.745 7.994 17.745 17.745v201.199c0 9.751-7.994 17.744-17.745 17.744h0zM153.487 286.288v178.579M104.279 312.678v.056M186.964 57.593l-17.773-15.76m198.96 15.76 17.773-15.76M277.557 33.754V10M130.81 128.344l23.754.992M424.304 128.344l-23.754.992" style="stroke-width:20;stroke-linecap:round;stroke-linejoin:round;stroke-miterlimit:10;" fill="none" stroke="#4eb4fe" stroke-width="20" stroke-linecap="round" stroke-linejoin="round" stroke-miterlimit="10" data-original="#000000" opacity="1"></path></g></svg>